<svg height="44" viewBox="0 0 196 44" width="196" xmlns="http://www.w3.org/2000/svg"><path d="m191.655906 20.0584795-2.217894 4.8083041-2.240819-4.8140351c-.141136-.3025111-.445607-.4950444-.779415-.4928655h-3.077544c-.101043-.00266-.19572.0491881-.247899.1357572-.052179.0865692-.053808.1945012-.004265.2826054l5.112047 9.7426901c.047866.0952645.145551.1552072.252164.1547368h1.982924c.106613.0004704.204297-.0594723.252163-.1547368l5.083392-9.7426901c.049543-.0881042.047914-.1960362-.004264-.2826054-.052179-.0865691-.146856-.1384172-.2479-.1357572h-3.077543c-.336376-.0005205-.642577.1939282-.785147.4985965zm-13.03228 9.788538h2.510175c.474771 0 .859649-.384878.859649-.8596491v-15.616959c0-.1582571-.128292-.2865498-.286549-.2865498h-2.510176c-.474771 0-.859649.3848781-.859649.8596492v15.616959c0 .0759977.03019.1488828.083928.2026213.053739.0537385.126624.0839284.202622.0839284zm-5.547603-4.2867836c-.625918-.0201689-1.230647.2279784-1.661988.6819883-.452208.4334609-.703473 1.0356654-.69345 1.6619883.003133 1.3005036 1.054946 2.3548755 2.355438 2.3611696.949018-.0028423 1.803634-.5749395 2.167931-1.4512554.364298-.8763159.16711-1.8856632-.500211-2.5604405-.431503-.4585116-1.038335-.7108369-1.66772-.6934503zm-8.596491-6.3556725c-.710207-.0032559-1.409829.1721423-2.034503.5100585-.622071.3270447-1.13278.8317683-1.467134 1.4499415-.316857-.6265642-.816473-1.1421671-1.432749-1.4785965-.643627-.3338469-1.361248-.4994517-2.086082-.4814035-.627728-.0140586-1.249991.1194239-1.816725.3897076-.578905.2948324-1.084204.715915-1.478596 1.2321637v-1.0086549c0-.1582571-.128293-.2865497-.28655-.2865497h-2.510175c-.474772 0-.85965.384878-.85965.8596491v9.1695906c0 .1582571.128293.2865497.28655.2865497h2.510176c.474771 0 .859649-.384878.859649-.8596491v-4.0575438c-.029764-.6357675.041813-1.2722217.212046-1.8854971.175682-.6285604.770454-1.0458596 1.421287-.997193.656143-.0389069 1.251468.3825829 1.432749 1.014386.156299.6098923.223856 1.2391326.200584 1.8683041v4.6306432c0 .1582571.128293.2865497.28655.2865497h2.510176c.474771 0 .859649-.384878.859649-.8596491v-4.0575438c-.036803-.6327506.046821-1.2667369.246432-1.8683041.229782-.6146079.842348-.9995155 1.49579-.9398831.637661-.0447903 1.213384.3803218 1.358245 1.002924.131439.5922249.183475 1.1993088.154737 1.8052632v4.6306432c0 .1582571.128293.2865497.28655.2865497h2.521637c.474772 0 .85965-.384878.85965-.8596491v-5.7309941c.06515-1.0375275-.210561-2.0679209-.785147-2.934269-.683114-.7908677-1.703888-1.2064231-2.745146-1.1175439zm-31.119298-5.6736842c-.54591-.0094844-1.071172.2085095-1.449942.6017544-.38567.3839521-.602482.9057351-.602482 1.4499415s.216812 1.0659894.602482 1.4499415c.37877.3932449.904032.6112388 1.449942.6017544 1.13312 0 2.051696-.9185755 2.051696-2.0516959s-.918576-2.0516959-2.051696-2.0516959zm-22.901053 11.5192982c.040109.5601896-.089719 1.1194489-.372514 1.6046784-.382969.4026298-.914324.6305532-1.47.6305532-.555677 0-1.087031-.2279234-1.47-.6305532-.271516-.4888448-.391229-1.0475011-.34386-1.6046784v-4.6592982c0-.4747711-.384878-.8596491-.859649-.8596491h-2.521638c-.158257 0-.286549.1282926-.286549.2865497v5.9716959c0 1.5874854.538713 2.7623392 1.587485 3.5016374 2.46101 1.2534628 5.373259 1.2534628 7.834269 0 1.031579-.7278362 1.558831-1.8969591 1.558831-3.5016374v-5.9716959c0-.1582571-.128293-.2865497-.28655-.2865497h-2.510176c-.474771 0-.859649.384878-.859649.8596491zm-26.3339178-5.1980117c-.5844485.322201-1.0699119.797757-1.4040936 1.3754386v-1.4098245c0-.1582571-.1282927-.2865497-.2865497-.2865497h-2.5044445c-.4747711 0-.8596491.384878-.8596491.8596491v9.1695906c0 .1582571.1282927.2865497.2865497.2865497h2.5044445c.4747711 0 .8596491-.384878.8596491-.8596491v-3.2895906c-.0510116-.7787826.1262471-1.555534.5100585-2.2350877.4802767-.6186862 1.2431814-.9493503 2.0230409-.8768421.2838987-.0074402.5678698.011747.8481871.0573099.1090091.0253661.2162216.0579127.3209357.0974269.0877988.0317427.1855569.0187228.2619873-.0348926.0764305-.0536154.1219496-.1411034.1219893-.2344641v-2.7795322c0-.158257-.1282927-.2865497-.2865497-.2865497h-.4183626c-.6850942-.0090012-1.3626026.1441746-1.9771929.4470175zm-45.7906433-7.6680701c9.5764912.1260818 15.1642105 6.0003508 8.82 14.0352046-2.911345 3.7022223-7.834269 7.3585965-14.4019883 9.7426901l-.9398831.3209357c-.6189473.2005848-1.2321637.3839766-1.8339181.5730994-1.4212865.4011696-2.8081871.7564912-4.1492398 1.014386-1.4384795.2980117-2.8253801.5100584-4.1664327.6647953-.957076.0916959-1.8797661.1547368-2.7738012.1719298-6.1092397.1547368-10.70549705-1.5129825-12.20128652-5.0891228-1.80526316-4.2753216 1.85111111-10.2298246 9.16959062-14.7630409-5.4215204 2.1663157-15.24444443 7.2898245-15.662807 14.631228v.8997661c.04951085.7787696.19385211 1.5485896.42982456 2.2923977 1.55883041 4.9630409 8.9174269 7.2783625 18.28760234 6.4473684.9054971-.0802339 1.8339181-.1833918 2.7738012-.3266667 1.3582456-.2005848 2.7451462-.4756725 4.1664327-.8023392 1.4212866-.3266666 2.7451462-.7106432 4.1492398-1.1461988.3037427-.1088889.6132164-.2005848.92269-.3094737.6304094-.2005848 1.2493568-.4126315 1.8511112-.6476023 8.1093567-2.945731 14.1269005-6.877193 17.6457309-11.3645614 2.000117-2.5732164 3.037427-4.9802339 3.2380117-7.0949708v-1.6104093c-.5788304-5.3527486-6.825614-8.4990644-15.3246783-7.6394152zm-6.2123977-2.65345033c.2123043-.00047542.423843-.02547545.6304094-.07450292 1.3582456-.33812865 2.0230409-1.78807017 2.0803509-3.50163743.0630409-1.81672514-.5730995-3.3297076-2.0803509-3.54748538-.1333234-.014624-.2678462-.014624-.4011696 0-1.0924292-.00121296-2.0565357.71371623-2.3726316 1.75941521-.2139948.58247613-.3301824 1.19633403-.3438596 1.81672514-.04507.72549274.0724076 1.45189563.3438596 2.12619884.3373948.88306674 1.198637 1.45415787 2.1433918 1.42128654zm-.0286549.60748543c-.5243846-.0070901-1.0477285.0487075-1.5588305.1661988l.1260819.1719298.2292398.4126316.1891228.4355555.1547368.4470176.1031579.4584795.0802339.4642105.045848.4814036v.4584795.4928655l-.034386.4814035v.4756725l-.0630409.4814035-.0630409.4756725-.0916959.4814035-.091696.4756726-.0916959.4642105-.1088888.4642105-.091696.4470176-.1088888.4298245-.1088889.4183626-.1088889.4011696-.0916959.3839766-.0916959.3667836-.045848.2349708-.0630409.2578947-.05731.2808187-.0515789.2922807-.05731.3094737-.0458479.2636257v.05731l-.0630409.3438596-.063041.3381287-.0458479.3553216-.080234.3897076-.0458479.3725146-.0630409.3667837-.045848.3897076-.0573099.3667836-.051579.3897076-.0458479.3839766-.045848.3839766c.0916959 1.1118129.1719298 2.0516959.2177778 2.5904094.0060175.4771491.1342726.9447867.3725146 1.3582456.3450967.4420893.8841275.6880755 1.4442105.6590643.4846891-.001064.9542203-.1690429 1.3295907-.4756725.3677817-.4333152.5849801-.9743.6189473-1.5416374.2464328-1.5874854.9570761-6.8026901 1.5702924-9.0377778.8825731-3.2208187 2.991579-9.0836257-2.1892397-9.5306433-.218699-.025872-.4388605-.0373587-.6590643-.0343859zm-6.3040936-1.65625735h.0343859c2.005848 0 2.945731-1.84538012 2.945731-4.09766082 0-2.25228071-.934152-4.10339182-2.94-4.1205848h-.0401169c-2.0345029 0-2.974386 1.85111111-2.974386 4.1205848 0 2.26947368.9456141 4.09766082 2.974386 4.09766082zm-4.1263158 9.51918125c.1833918.7851462.3725146 1.5129825.5272515 2.1605848.6304093 2.5732164 1.2493567 8.5563743 1.4785964 10.3616375.2292398 1.8052631.8653802 2.2064327 2.1605848 2.3267836 1.2780117-.1203509 1.9256141-.5043275 2.1433919-2.3267836.2177777-1.8224562.8481871-7.7884211 1.4614035-10.3616375.1547368-.6476023.3553216-1.3754386.5730994-2.1605848.5730994-2.3611696 1.0315789-5.1578947 0-6.9230409-.6647953-1.14619883-1.931345-1.90269006-4.1492398-1.90269006-2.2178947 0-3.5188304.75649123-4.1664327 1.90269006-1.060234 1.7880702-.6017544 4.5618713-.028655 6.9230409zm-2.7508772-8.54491225c.2065663.04902747.418105.0740275.6304094.07450292.9437842.01860888 1.7953981-.56371094 2.1204678-1.44994152.2555463-.67851823.3705822-1.40188008.3381286-2.12619883-.017483-.61948099-.131566-1.23243561-.3381286-1.81672514-.3224787-1.04119184-1.2826616-1.75321158-2.3726316-1.75941521-.1332998-.01504849-.2678697-.01504849-.4011696 0-1.4957894.21777778-2.1433918 1.71929825-2.0860818 3.54748538.0458479 1.74222223.7278362 3.19216375 2.1090058 3.5302924zm-.6418713 19.27906435c.0322007.5719696.2586377 1.1158228.6418713 1.5416374.3736117.3058036.8410575.4737604 1.3238597.4756725.5620626.03092 1.103662-.2152615 1.4499415-.6590643.2224992-.4198632.3496898-.8836194.3725146-1.3582456.0458479-.5387135.1203509-1.4785965.2120468-2.5732164v-.034386l-.045848-.3839766-.0458479-.3839766-.063041-.3897076-.0458479-.3667836-.045848-.3897076-.0573099-.3667836-.0745029-.3495907-.05731-.3667836-.0573099-.3782456-.045848-.3381287-.0630409-.3438596v-.045848l-.051579-.2464327-.0630409-.3094737-.0630409-.2922807-.045848-.2808187-.0573099-.2578948-.063041-.2349707-.0802339-.3667836-.1088889-.3839767-.0916959-.4011695-.1031579-.4183626-.1088889-.4298246-.1088888-.4470175-.091696-.4928655-.1088888-.4642105-.0916959-.4756726-.080234-.4756725-.0573099-.4756725-.0630409-.4814035-.045848-.4756725v-.4928655-.4814035-.4584796l.045848-.4814035.0745029-.4642105.1088889-.4584795.1375438-.4470176.2005848-.4355555.2349708-.4126316.1203509-.1719298c-.5112102-.1168448-1.0344764-.1726342-1.5588304-.1661989-.2194432-.0146707-.4396212-.0146707-.6590644 0-5.1578947.4470176-3.0718128 6.3040936-2.1892397 9.5306433.6132163 2.2580117 1.3238596 7.4732164 1.5702924 9.0607018zm57.5219883-15.6513451h-2.5101755c-.4747711 0-.8596491.3848781-.8596491.8596492v6.6021052c-.3766928-.4493088-.8592008-.7978962-1.4040936-1.0143859-.2673444-.1091387-.546084-.1879548-.8309941-.2349708-.3155579-.0597133-.6359207-.0904067-.957076-.0916959-1.4157807-.0484583-2.7786924.5404541-3.7136843 1.6046784-1.9433611 2.2256887-1.9310908 5.5484905.028655 7.759766.9390832 1.065196 2.2996764 1.662683 3.7194152 1.6333334.30994.002136.6192327-.0286012.9226901-.0916959.3061196-.062908.6055014-.1550255.8940351-.2750877.5485762-.244148 1.0144554-.6423354 1.3410526-1.1461989v.8711111c0 .1582571.1282927.2865497.2865497.2865497h2.5101754c.4747711 0 .8596492-.384878.8596492-.8596491v-15.616959c0-.1582571-.1282927-.2865498-.2865497-.2865498zm-5.6163743 13.9435088c-1.2882123 0-2.3325146-1.0443023-2.3325146-2.3325146s1.0443023-2.3325146 2.3325146-2.3325146c1.2882122 0 2.3325146 1.0443023 2.3325146 2.3325146 0 .6186213-.2457464 1.2119056-.6831777 1.6493369-.4374313.4374314-1.0307156.6831777-1.6493369.6831777zm29.6865497-7.4961403h-2.5216374c-.4747711 0-.8596492.384878-.8596492.8596491v.1547368c-.3755244-.4505628-.8583773-.7993994-1.4040935-1.0143859-.264182-.1068451-.538871-.1856021-.8195322-.2349708-.3195337-.0588986-.6436282-.0895821-.968538-.0916959-1.4172976-.0477438-2.7816688.5408909-3.7194152 1.6046784-1.946826 2.2252281-1.9320846 5.5518789.034386 7.759766.941687 1.0682956 2.3071647 1.6660854 3.7308772 1.6333334.3098718.0006941.6190157-.0300282.92269-.0916959.3017541-.0653895.5971052-.157447.8825731-.2750877.5507541-.2406842 1.0175379-.6396447 1.3410526-1.1461989v.8539182c0 .158257.1282927.2865497.2865498.2865497h2.5216374c.4747711 0 .8596493-.3848781.8596493-.8596492v-9.1695906c-.009107-.1515057-.134771-.2696302-.2865499-.2693567zm-5.6106433 7.4961403c-1.2882122 0-2.3325146-1.0443023-2.3325146-2.3325146s1.0443024-2.3325146 2.3325146-2.3325146c1.2882123 0 2.3325146 1.0443023 2.3325146 2.3325146s-1.0443023 2.3325146-2.3325146 2.3325146zm33.8587132-7.4961403h-2.556023c-.474771 0-.859649.384878-.859649.8596491v.2407017c-.320692-.4762034-.76978-.8517676-1.295205-1.0831578-.286775-.1248733-.586665-.2171474-.894035-.2750878-1.713927-.2659478-3.450475.3150377-4.659298 1.5588304-.970233 1.0878342-1.492398 2.5027998-1.461404 3.960117-.048497 1.3955016.453771 2.7540967 1.398363 3.7824561.959381.9934677 2.293085 1.5365205 3.673567 1.4957895.352271-.0026358.703474-.0390996 1.048772-.1088889.25436-.0561116.502144-.1387062.739298-.2464327.559648-.2582576 1.066757-.6177031 1.49579-1.0602339v.4756725c.047277.7325339-.107342 1.4639979-.447018 2.1147368-.403037.5802833-1.083694.9031591-1.78807.8481872h-.126082c-.368071.0041689-.731733-.0803581-1.060234-.2464328-.26521-.1090359-.479919-.3135198-.601754-.5730994-.044743-.1089483-.151592-.1794237-.269357-.1776608h-3.536023c-.084842.0003109-.165184.0382028-.21939.1034709-.054205.0652681-.076701.1512015-.061429.2346577.27904 1.1548382 1.055604 2.1265929 2.120468 2.6534503 1.128274.639446 2.405404.9696018 3.702222.957076h.074503c1.925614 0 3.375556-.4928655 4.349825-1.4384795s1.495789-2.6018713 1.495789-4.7452632v-9.0435087c.00048-.1497204-.114384-.2745728-.263626-.2865497zm-5.599181 7.4961403c-1.288212 0-2.332515-1.0443023-2.332515-2.3325146s1.044303-2.3325146 2.332515-2.3325146 2.332515 1.0443023 2.332515 2.3325146-1.044303 2.3325146-2.332515 2.3325146zm9.009123-6.6364912v9.1695906c.003049.1569768.129573.2835008.28655.2865497h2.510175c.474771 0 .859649-.384878.859649-.8596491v-9.1695906c0-.1582571-.128293-.2865497-.28655-.2865497h-2.504444c-.228985-.0015266-.449115.0883689-.611572.2497502-.162457.1613812-.253813.3809093-.253808.6098989zm15.639883.3438596c-1.07408-1.0334731-2.522193-1.5858247-4.011696-1.5301754h-.137544c-1.520222-.0648795-3.005445.4679081-4.137778 1.4843275-1.075824 1.0492969-1.647936 2.5108985-1.570292 4.0116959-.071324 1.5514489.560232 3.0524457 1.719298 4.0861988 1.162738.951408 2.630375 1.4501199 4.132047 1.4040936h.120351c1.159631.0259581 2.303296-.2738568 3.301052-.8653801.870296-.516478 1.52388-1.3309126 1.83965-2.2923977.027468-.0873376.011548-.1825429-.04284-.256193-.054387-.0736501-.140695-.116877-.232248-.1163216h-2.974386c-.09608-.0000897-.186068.0470467-.240702.1260819-.154967.2513984-.372079.4586412-.630409.6017544-.318397.1639294-.67372.2428901-1.031579.2292397h-.108889c-1.467135-.0458479-2.18924-.8023392-2.18924-2.2923976h7.329942c.209823-.0031321.378269-.1741303.378245-.3839767.078681-1.5481184-.466257-3.0632094-1.512982-4.2065497zm-2.080351 2.4643275h-3.879883c-.04425-.0021992-.085226-.0239753-.111808-.0594186-.026583-.0354434-.036015-.0808778-.025736-.1239732.104601-.4153357.352143-.7805615.699181-1.0315789.410045-.2731659.894346-.4132529 1.386901-.4011696h.045848c.482669-.0118556.955204.1395979 1.341053.4298245.337228.2446467.578442.5993729.681988 1.002924.012627.0432929.004134.0900044-.022924.1260819-.027058.0360774-.069523.0573099-.11462.0573099z" fill="#f60" fill-rule="evenodd"/></svg>