<svg height="45" viewBox="0 0 220 45" width="220" xmlns="http://www.w3.org/2000/svg"><path d="m588.737861 229c2.4446-.901175 4.510144-2.493898 5.858954-4.956943 1.007644-1.813758 1.561847-4.080955 1.561847-6.851974v-24.586497h-5.59242l-.302293 2.972548c-1.964904-2.468726-5.239745-3.577134-8.010764-3.577134-7.456561 0-12.54516 6.146624-12.54516 13.200127 0 7.506943 5.34051 13.351274 12.394013 13.351274 2.771019 0 6.04586-1.058025 7.91-3.627516v2.922166c0 4.735924-3.174076 6.75121-7.154267 6.75121-2.871784 0-6.600064-1.15879-9.320701-3.224458l-2.267197 5.038216c1.653232 1.142675 3.51764 2.003782 5.451691 2.588981h-115.090927l13.610828-36.395414h-6.650446l-5.945095 17.180318h-.100765l-5.844331-17.180318h-6.700828l9.320701 24.737643-4.131338 11.657771h-16.189363v-45h220v45zm-97.978689-37c-7.758854 0-13.452038 5.995478-13.452038 13.552803 0 7.607707 5.693184 13.603184 13.452038 13.603184 7.758853 0 13.452038-5.995477 13.452038-13.603184 0-7.557325-5.693185-13.552803-13.452038-13.552803zm7.255032 13.552803c0 4.584777-3.02293 8.262675-7.255032 8.262675s-7.255032-3.677898-7.255032-8.262675c0-4.534395 3.02293-8.212293 7.255032-8.212293s7.255032 3.677898 7.255032 8.212293zm35.166751 12.998598v-25.946815h-6.096242v17.230701c-1.511465 2.418344-4.030573 3.980191-6.448917 3.980191-1.86414 0-3.174076-.654968-3.929809-1.964905-.957261-1.612229-1.007643-4.030573-1.007643-6.197006v-13.048981h-6.096242v13.50242c0 3.778663.403057 7.20465 2.31758 9.723758 1.612229 2.065669 4.030573 3.325223 7.154267 3.325223s6.197006-1.461083 8.262675-4.43363l.302293 3.829044zm7.557325-25.946815v25.946815h6.096242v-17.2307c1.511465-2.418344 4.030574-3.980191 6.448917-3.980191 1.864141 0 3.174077.654968 3.929809 1.964904.957262 1.612229 1.007644 4.030573 1.007644 6.197006v13.048981h6.096242v-13.50242c0-3.778663-.403058-7.20465-2.31758-9.723758-1.612229-2.065669-4.030573-3.325223-7.154267-3.325223-3.123695 0-6.197007 1.461083-8.262676 4.433631l-.302293-3.829045zm49.273758 16.626115c-1.461083 2.771019-4.282484 3.980191-6.75121 3.980191-4.484013 0-7.355796-3.677898-7.355796-7.859618 0-3.929809 2.418344-8.010764 7.506943-8.010764 2.367961 0 4.836687 1.007643 6.600063 3.27484zm36.52707-2.116051c.151147-.957261.251911-2.116051.251911-3.073312 0-6.952739-5.189363-12.041338-12.242866-12.041338-7.355796 0-13.048981 5.945096-13.048981 13.754331 0 7.708472 5.038217 13.401656 13.048981 13.401656 5.390892 0 8.766497-2.015286 11.63828-6.247388l-4.131337-2.771019c-1.61223 2.720637-3.778663 4.030573-7.154268 4.030573-4.232102 0-6.851974-3.174077-7.255032-7.053503zm-5.995477-4.383249h-12.54516c.806115-3.325223 2.972548-5.844331 6.700828-5.844331 3.224459 0 5.693185 2.468726 5.844332 5.844331zm17.482611-10.126815h-5.59242v25.946815h6.146624v-17.482611c1.259554-2.216815 3.123694-3.47637 5.340509-3.47637.957262 0 1.712994.151147 2.468727.554204l1.360318-5.693185c-.957261-.302293-1.914522-.453439-3.123694-.453439-2.670255 0-4.735924 1.763376-6.297771 4.282484z" fill="#201e1c" fill-rule="evenodd" transform="translate(-439 -184)"/></svg>