<svg height="52" viewBox="0 0 150 52" width="150" xmlns="http://www.w3.org/2000/svg"><g fill="none"><path d="m12.3597265 51.8867925h130.6535885l6.986685-51.8867925h-144.56638939l-5.23319988 38.35705s-2.75439543 13.5297425 12.15931577 13.5297425" fill="#ed1c24"/><path d="m55.9510507 16.3283323s-.2552207 1.9249593-.3064154 2.1188947h-6.2156392c-2.1516833 0-1.7925676-1.6893583-1.7925676-1.6893583l.2612436-1.571179h6.4467684c1.7752516 0 1.6066102 1.1416426 1.6066102 1.1416426zm-2.485804 18.8964193h-5.3852311c-1.7692287 0-2.533385-1.278761-2.5213391-2.3234358.0368903 0 1.7737459-12.7876089 1.7737459-12.7876089l6.4610727.094695s1.6924366.1242398 1.4643191 2.1287429c-.0564648.6151386-1.7857918 12.6777628-1.7925675 12.8876068zm8.6726086-15.1123325h24.8173855c1.3702111 0 5.6615319.4719597 5.1066717 4.6006604-.5714233 4.2294562-1.4718478 10.5118993-1.4718478 10.5118993h-5.2180954s-2.4249727-.2446917-2.1501775-2.2469222c.2303761-1.6408744.847724-6.6407689 1.0133539-7.9180148.1724057-1.3787587-1.415383-1.2636096-1.415383-1.2636096h-2.0011106l-1.4726006 11.4285466h-4.962122-.0248444s-2.8126973.2045412-2.5401607-2.0885922c.2747951-2.2855578.8138452-6.2006268.9576421-7.6733229.1558427-1.6567832-1.3656941-1.6242082-1.3656941-1.6242082l-1.9694903-.0424233-1.4718477 11.4285466h-7.9306619zm-26.7920705 9.268668v-.0219692s2.5409136-.2310558 3.8704702-1.0552808c1.3333209-.8249826 1.7142696-2.6188842 1.7142696-4.2771825-.0263501-1.3166389-.307921-4.544601-7.6475852-4.544601h-13.2594282l-2.0989829 15.7193651s5.4891263.0143936 8.2303015.0234843c.0075286-.0128784.8552527-6.8134924.8635342-6.9210659.0323732 0 3.6378354 5.3726138 3.6378354 5.3726138s1.0720773 1.5484521 3.8704702 1.5484521h6.64703s-5.8279148-5.8263921-5.8279148-5.8438159zm-2.1976079-3.510532h-5.5102065l.4005234-3.004482s3.8343326-.1212096 4.4132845.4666567c.0399018 0 .6963986.4052945.6963986 1.2173987.0188216 0 0 1.3204266 0 1.3204266zm74.3989291-9.5725253s-.252962 1.9249594-.305663 2.1196523h-6.211875c-2.1562002 0-1.7985902-1.6908734-1.7985902-1.6908734l.2650079-1.5742092h6.4482743c1.773746 0 1.602846 1.1454303 1.602846 1.1454303zm-2.481362 18.8986163h-5.3905016c-1.7684758 0-2.5266091-1.2780033-2.5190805-2.3241933.0391488 0 1.7707345-12.7906392 1.7707345-12.7906392l6.4588146.0969677s1.699212.1189369 1.469589 2.1272278c-.057218.6121083-1.786545 12.6739749-1.789556 12.890637zm12.317144-22.8122458s4.118162-1.4386059 6.773511-.9696764c2.655349.4666568 4.013515 2.5696427 2.687722 7.244544-1.327298 4.6741438-5.791778 13.6784991-10.827679 17.1897887 0 0 8.073705-17.4246322 1.366446-23.4646563z" fill="#fefefe"/><path d="m127.504513 13.8546694s3.778501-1.0443479 6.062006-.479632c2.288921.5639629 2.531122 2.3943953 2.116363 3.8581389-.417857 1.4637437-3.540169 10.5948231-15.871561 15.7856916 0 0 12.903236-15.5537816 7.693192-19.1641985" fill="#00aeea"/></g></svg>