<svg height="22" viewBox="0 0 192 22" width="192" xmlns="http://www.w3.org/2000/svg"><g fill="none"><g fill="#231f20"><path d="m53.0869565 21.8086957v-21.8086957h9.2782609c1.0521739 0 2.0086956.19130435 2.8695652.66956522.8608696.38260869 1.626087.95652174 2.2 1.72173913.5739131.76521739 1.1478261 1.53043478 1.4347826 2.39130435.3826087.86086956.5739131 1.8173913.5739131 2.67826087 0 .95652173-.1913044 1.91304347-.4782609 2.77391303-.3826087.8608696-.7652174 1.626087-1.4347826 2.3913044-.5739131.6695652-1.3391305 1.2434782-2.2 1.6260869-.8608696.3826087-1.8173913.5739131-2.8695652.5739131h-4.4v7.0782608h-4.9739131zm5.0695652-11.3826087h4.1130435c.5739131 0 1.1478261-.2869566 1.5304348-.76521743.4782609-.47826087.6695652-1.24347827.6695652-2.2 0-.47826087-.0956522-.95652174-.1913043-1.33913044-.0956522-.3826087-.2869566-.66956522-.5739131-.95652174-.1913043-.28695652-.4782608-.38260869-.7652174-.57391304-.2869565-.19130435-.573913-.19130435-.8608695-.19130435h-3.9217392zm12.7217392 11.3826087v-21.8086957h9.8521739c1.0521739 0 2.0086956.19130435 2.8695652.66956522.8608696.38260869 1.626087.95652174 2.2956522 1.72173913.6695652.66956522 1.1478261 1.53043478 1.5304348 2.39130435.3826087.86086956.573913 1.8173913.573913 2.67826087 0 .66956521-.0956522 1.33913043-.2869565 1.91304347-.1913044.66956526-.3826087 1.24347826-.6695652 1.72173916-.2869566.573913-.6695653 1.0521739-1.1478261 1.5304348-.4782609.4782608-.9565218.8608695-1.5304348 1.147826l4.973913 8.1304348h-5.6434782l-4.4-7.0782608h-3.2521739v7.0782608h-5.1652174zm5.0695652-11.3826087h4.5913043c.5739131 0 1.1478261-.2869566 1.5304348-.86086961.4782609-.57391304.6695652-1.24347826.6695652-2.2 0-.86086956-.2869565-1.62608696-.7652174-2.10434782-.4782608-.57391305-1.0521739-.7652174-1.6260869-.7652174h-4.4956522z"/><path d="m90.583 21.809v-21.809h5.069v21.809z"/><path d="m103.017 9.374v12.435h-5.069v-21.809h3.922l10.139 12.817v-12.817h5.069v21.809h-4.017z"/><path d="m136.687 4.4h-6.6v17.409h-5.07v-17.409h-6.695v-4.4h18.365z"/><path d="m137.93 21.809v-21.809h14.827v4.4h-9.757v4.687h8.035v4.113h-8.035v8.609z"/><path d="m163.373913 17.5043478c.86087 0 1.626087-.1913043 2.2-.573913s1.052174-.8608696 1.434783-1.4347826c.382608-.5739131.669565-1.2434783.765217-2.0086957.191304-.7652174.191304-1.5304348.191304-2.3913043v-11.0956522h5.069566v11.1913043c0 1.5304348-.191305 2.9652174-.573913 4.2086957-.382609 1.3391304-.956522 2.4869565-1.72174 3.4434783-.765217.9565217-1.817391 1.7217391-2.965217 2.2956521-1.147826.5739131-2.678261.8608696-4.304348.8608696-1.721739 0-3.252174-.2869565-4.495652-.8608696-1.243478-.573913-2.2-1.4347826-2.965217-2.3913043-.765218-.9565218-1.339131-2.1043478-1.721739-3.4434783-.382609-1.3391304-.573914-2.6782608-.573914-4.1130435v-11.1913043h5.069566v11.1913043c0 .8608696.095652 1.626087.286956 2.3913044.191305.7652174.478261 1.4347826.765218 2.0086956.382608.5739131.860869 1.052174 1.434782 1.4347827.573913.2869565 1.243478.4782608 2.104348.4782608z"/><path d="m175.713 21.809v-21.809h5.07v17.409h10.521v4.4z"/></g><path d="m0 22 12.817-22 12.818 22z" fill="#f2c994"/><path d="m11.574 22 12.817-22 12.818 22z" fill="#ed4642"/><path d="m23.148 22 12.817-22 12.818 22z" fill="#17bcb5"/><path d="m11.574 22h14.061l-7.078-12.052z" fill="#df392f"/><path d="m23.148 22h14.061l-6.983-12.052z" fill="#16342f"/><path d="m23.148 22h2.487l-1.244-2.104z" fill="#15291a"/></g></svg>